<svg width="86" height="95" viewBox="0 0 86 95" fill="none" xmlns="http://www.w3.org/2000/svg">
<path d="M2.11383 65H21.6007V56.5447H11.8903V21.5345H2.11383V65ZM47.1745 47.1646C47.1745 36.1331 43.079 31.9715 35.8127 31.9715C27.7538 31.9715 22.9977 36.6615 22.9977 48.9481C22.9977 59.187 26.5647 65.3963 35.5485 65.3963C43.2111 65.3963 47.1085 61.3669 47.1745 53.0437H39.1816C39.1156 57.2713 38.0587 58.3943 35.9448 58.3943C33.5668 58.3943 32.3117 56.4126 32.1135 50.3353H47.1745V47.1646ZM39.1816 45.2489H32.2456C32.5759 40.4268 33.7649 38.9735 35.9448 38.9735C38.1908 38.9735 39.1816 40.625 39.1816 44.4563V45.2489ZM50.7535 65H60.5299V47.7591H69.5797V40.7571H60.5299V29.9898H71.5614V21.5345H50.7535V65ZM74.2976 29.7916H83.4796V21.9308H74.2976V29.7916ZM74.3637 65H83.4796V32.3678H74.3637V65Z" fill="white"/>
<rect x="23.3223" y="20.4062" width="21.8644" height="5.83051" fill="#EF5DA8"/>
</svg>
